<?xml version="1.0" encoding="UTF-8" standalone="no"?>
<svg
   width="400.20639"
   zoomAndPan="magnify"
   viewBox="0 0 300.15479 216.65624"
   height="288.875"
   preserveAspectRatio="xMidYMid"
   version="1.0"
   id="svg54"
   xmlns="http://www.w3.org/2000/svg"
   xmlns:svg="http://www.w3.org/2000/svg">
  <defs
     id="defs3" />
  <g
     fill="#260d33"
     fill-opacity="1"
     id="g8"
     transform="matrix(0.85772724,0,0,0.85772724,89.634821,-69.043775)">
    <g
       transform="translate(137.49862,325.40529)"
       id="g7">
      <g
         id="g6">
        <path
           d="m 3.09375,-8.109375 v 6.125 c 0,0.242187 0.0625,0.429687 0.1875,0.5625 0.132812,0.125 0.375,0.1875 0.71875,0.1875 H 4.609375 V 0 C 4.035156,0.0820312 3.640625,0.125 3.421875,0.125 2.753906,0.125 2.269531,-0.03125 1.96875,-0.34375 1.664062,-0.664062 1.515625,-1.179688 1.515625,-1.890625 v -6.21875 H 0.234375 V -9.40625 h 1.28125 v -2.640625 H 3.09375 v 2.640625 h 1.515625 v 1.296875 z m 0,0"
           id="path5" />
      </g>
    </g>
  </g>
  <g
     fill="#260d33"
     fill-opacity="1"
     id="g11"
     transform="matrix(0.85772724,0,0,0.85772724,89.634821,-69.043775)">
    <g
       transform="translate(141.99602,325.40529)"
       id="g10">
      <g
         id="g9">
        <path
           d="m 8.859375,0 h -1.59375 v -6.15625 c 0,-0.75 -0.148437,-1.285156 -0.4375,-1.609375 -0.292969,-0.332031 -0.773437,-0.5 -1.4375,-0.5 C 4.578125,-8.265625 3.9375,-8 3.46875,-7.46875 3,-6.945312 2.765625,-6.171875 2.765625,-5.140625 V 0 H 1.1875 v -12.921875 h 1.578125 v 4.765625 h 0.03125 C 3.523438,-9.175781 4.445312,-9.6875 5.5625,-9.6875 c 1.03125,0 1.835938,0.273438 2.421875,0.8125 0.582031,0.542969 0.875,1.367188 0.875,2.46875 z m 0,0"
           id="path8" />
      </g>
    </g>
  </g>
  <g
     fill="#260d33"
     fill-opacity="1"
     id="g14"
     transform="matrix(0.85772724,0,0,0.85772724,89.634821,-69.043775)">
    <g
       transform="translate(151.44166,325.40529)"
       id="g13">
      <g
         id="g12">
        <path
           d="M 7.640625,-5.453125 C 7.566406,-6.472656 7.300781,-7.195312 6.84375,-7.625 6.382812,-8.050781 5.773438,-8.265625 5.015625,-8.265625 c -0.761719,0 -1.382813,0.273437 -1.859375,0.8125 -0.46875,0.542969 -0.71875,1.210937 -0.75,2 z m 1.515625,2.5 C 8.976562,-1.984375 8.5,-1.175781 7.71875,-0.53125 7.039062,0 6.140625,0.273438 5.015625,0.296875 3.703125,0.273438 2.65625,-0.15625 1.875,-1 1.101562,-1.851562 0.71875,-3.003906 0.71875,-4.453125 c 0,-1.644531 0.394531,-2.925781 1.1875,-3.84375 C 2.707031,-9.222656 3.816406,-9.6875 5.234375,-9.6875 6.503906,-9.6875 7.5,-9.210938 8.21875,-8.265625 8.9375,-7.316406 9.296875,-5.957031 9.296875,-4.1875 H 2.40625 c 0,0.980469 0.226562,1.742188 0.6875,2.28125 0.457031,0.542969 1.144531,0.8125 2.0625,0.8125 0.644531,0 1.195312,-0.191406 1.65625,-0.578125 0.457031,-0.394531 0.710938,-0.820313 0.765625,-1.28125 z m 0,0"
           id="path11" />
      </g>
    </g>
  </g>
  <g
     fill="#260d33"
     fill-opacity="1"
     id="g20"
     transform="matrix(0.85772724,0,0,0.85772724,89.634821,-69.043775)">
    <g
       transform="translate(164.83978,325.40529)"
       id="g19">
      <g
         id="g18">
        <path
           d="M 6.5,-6.734375 C 6.46875,-7.296875 6.265625,-7.695312 5.890625,-7.9375 c -0.375,-0.25 -0.917969,-0.375 -1.625,-0.375 -0.523437,0 -0.964844,0.117188 -1.328125,0.34375 -0.367188,0.230469 -0.546875,0.558594 -0.546875,0.984375 0,0.335937 0.109375,0.585937 0.328125,0.75 0.21875,0.15625 0.6875,0.328125 1.40625,0.515625 l 1.5625,0.390625 c 0.945312,0.242187 1.625,0.546875 2.03125,0.921875 0.40625,0.375 0.609375,0.898438 0.609375,1.5625 0,0.929688 -0.339844,1.679688 -1.015625,2.25 -0.679688,0.5742188 -1.578125,0.859375 -2.703125,0.859375 -1.324219,0 -2.324219,-0.26953125 -3,-0.8125 C 0.929688,-1.097656 0.585938,-1.925781 0.578125,-3.03125 h 1.53125 C 2.128906,-2.375 2.34375,-1.882812 2.75,-1.5625 c 0.40625,0.3125 1.019531,0.46875 1.84375,0.46875 0.65625,0 1.175781,-0.128906 1.5625,-0.390625 C 6.550781,-1.753906 6.75,-2.125 6.75,-2.59375 c 0,-0.332031 -0.125,-0.597656 -0.375,-0.796875 -0.25,-0.195313 -0.75,-0.382813 -1.5,-0.5625 l -1.828125,-0.4375 c -0.75,-0.1875 -1.304687,-0.46875 -1.65625,-0.84375 -0.355469,-0.375 -0.53125,-0.859375 -0.53125,-1.453125 0,-0.914062 0.328125,-1.644531 0.984375,-2.1875 0.664062,-0.539062 1.535156,-0.8125 2.609375,-0.8125 1.132813,0 2.003906,0.277344 2.609375,0.828125 0.601562,0.554687 0.925781,1.261719 0.96875,2.125 z m 0,0"
           id="path17" />
      </g>
    </g>
  </g>
  <g
     fill="#260d33"
     fill-opacity="1"
     id="g23"
     transform="matrix(0.85772724,0,0,0.85772724,89.634821,-69.043775)">
    <g
       transform="translate(173.35378,325.40529)"
       id="g22">
      <g
         id="g21">
        <path
           d="M 7.640625,-5.453125 C 7.566406,-6.472656 7.300781,-7.195312 6.84375,-7.625 6.382812,-8.050781 5.773438,-8.265625 5.015625,-8.265625 c -0.761719,0 -1.382813,0.273437 -1.859375,0.8125 -0.46875,0.542969 -0.71875,1.210937 -0.75,2 z m 1.515625,2.5 C 8.976562,-1.984375 8.5,-1.175781 7.71875,-0.53125 7.039062,0 6.140625,0.273438 5.015625,0.296875 3.703125,0.273438 2.65625,-0.15625 1.875,-1 1.101562,-1.851562 0.71875,-3.003906 0.71875,-4.453125 c 0,-1.644531 0.394531,-2.925781 1.1875,-3.84375 C 2.707031,-9.222656 3.816406,-9.6875 5.234375,-9.6875 6.503906,-9.6875 7.5,-9.210938 8.21875,-8.265625 8.9375,-7.316406 9.296875,-5.957031 9.296875,-4.1875 H 2.40625 c 0,0.980469 0.226562,1.742188 0.6875,2.28125 0.457031,0.542969 1.144531,0.8125 2.0625,0.8125 0.644531,0 1.195312,-0.191406 1.65625,-0.578125 0.457031,-0.394531 0.710938,-0.820313 0.765625,-1.28125 z m 0,0"
           id="path20" />
      </g>
    </g>
  </g>
  <g
     fill="#260d33"
     fill-opacity="1"
     id="g26"
     transform="matrix(0.85772724,0,0,0.85772724,89.634821,-69.043775)">
    <g
       transform="translate(182.84337,325.40529)"
       id="g25">
      <g
         id="g24">
        <path
           d="M 8.828125,0 H 6.78125 L 4.46875,-3.546875 2.203125,0 h -2 l 3.28125,-4.84375 -3.125,-4.5625 H 2.375 L 4.546875,-6.09375 6.75,-9.40625 h 1.921875 l -3.15625,4.5625 z m 0,0"
           id="path23" />
      </g>
    </g>
  </g>
  <g
     fill="#260d33"
     fill-opacity="1"
     id="g32"
     transform="matrix(0.85772724,0,0,0.85772724,89.634821,-69.043775)">
    <g
       transform="translate(195.26589,325.40529)"
       id="g31">
      <g
         id="g30">
        <path
           d="M 6.5,-6.734375 C 6.46875,-7.296875 6.265625,-7.695312 5.890625,-7.9375 c -0.375,-0.25 -0.917969,-0.375 -1.625,-0.375 -0.523437,0 -0.964844,0.117188 -1.328125,0.34375 -0.367188,0.230469 -0.546875,0.558594 -0.546875,0.984375 0,0.335937 0.109375,0.585937 0.328125,0.75 0.21875,0.15625 0.6875,0.328125 1.40625,0.515625 l 1.5625,0.390625 c 0.945312,0.242187 1.625,0.546875 2.03125,0.921875 0.40625,0.375 0.609375,0.898438 0.609375,1.5625 0,0.929688 -0.339844,1.679688 -1.015625,2.25 -0.679688,0.5742188 -1.578125,0.859375 -2.703125,0.859375 -1.324219,0 -2.324219,-0.26953125 -3,-0.8125 C 0.929688,-1.097656 0.585938,-1.925781 0.578125,-3.03125 h 1.53125 C 2.128906,-2.375 2.34375,-1.882812 2.75,-1.5625 c 0.40625,0.3125 1.019531,0.46875 1.84375,0.46875 0.65625,0 1.175781,-0.128906 1.5625,-0.390625 C 6.550781,-1.753906 6.75,-2.125 6.75,-2.59375 c 0,-0.332031 -0.125,-0.597656 -0.375,-0.796875 -0.25,-0.195313 -0.75,-0.382813 -1.5,-0.5625 l -1.828125,-0.4375 c -0.75,-0.1875 -1.304687,-0.46875 -1.65625,-0.84375 -0.355469,-0.375 -0.53125,-0.859375 -0.53125,-1.453125 0,-0.914062 0.328125,-1.644531 0.984375,-2.1875 0.664062,-0.539062 1.535156,-0.8125 2.609375,-0.8125 1.132813,0 2.003906,0.277344 2.609375,0.828125 0.601562,0.554687 0.925781,1.261719 0.96875,2.125 z m 0,0"
           id="path29" />
      </g>
    </g>
  </g>
  <g
     fill="#260d33"
     fill-opacity="1"
     id="g35"
     transform="matrix(0.85772724,0,0,0.85772724,89.634821,-69.043775)">
    <g
       transform="translate(203.77989,325.40529)"
       id="g34">
      <g
         id="g33">
        <path
           d="m 8.859375,0 h -1.59375 v -6.15625 c 0,-0.75 -0.148437,-1.285156 -0.4375,-1.609375 -0.292969,-0.332031 -0.773437,-0.5 -1.4375,-0.5 C 4.578125,-8.265625 3.9375,-8 3.46875,-7.46875 3,-6.945312 2.765625,-6.171875 2.765625,-5.140625 V 0 H 1.1875 v -12.921875 h 1.578125 v 4.765625 h 0.03125 C 3.523438,-9.175781 4.445312,-9.6875 5.5625,-9.6875 c 1.03125,0 1.835938,0.273438 2.421875,0.8125 0.582031,0.542969 0.875,1.367188 0.875,2.46875 z m 0,0"
           id="path32" />
      </g>
    </g>
  </g>
  <g
     fill="#260d33"
     fill-opacity="1"
     id="g38"
     transform="matrix(0.85772724,0,0,0.85772724,89.634821,-69.043775)">
    <g
       transform="translate(213.22553,325.40529)"
       id="g37">
      <g
         id="g36">
        <path
           d="m 2.28125,-4.71875 c 0,1.054688 0.234375,1.917969 0.703125,2.59375 0.476563,0.679688 1.15625,1.015625 2.03125,1.015625 0.90625,0 1.59375,-0.351563 2.0625,-1.0625 0.46875,-0.71875 0.703125,-1.566406 0.703125,-2.546875 0,-1 -0.234375,-1.84375 -0.703125,-2.53125 -0.46875,-0.695312 -1.15625,-1.046875 -2.0625,-1.046875 -0.835937,0 -1.5,0.328125 -2,0.984375 -0.492187,0.648438 -0.734375,1.511719 -0.734375,2.59375 z m -1.609375,0 c 0,-1.40625 0.382813,-2.582031 1.15625,-3.53125 0.78125,-0.957031 1.84375,-1.4375 3.1875,-1.4375 1.375,0 2.445313,0.484375 3.21875,1.453125 0.769531,0.96875 1.15625,2.140625 1.15625,3.515625 0,1.386719 -0.386719,2.5625 -1.15625,3.53125 -0.761719,0.96875 -1.835937,1.453125 -3.21875,1.453125 -1.324219,0 -2.382813,-0.46875 -3.171875,-1.40625 C 1.0625,-2.085938 0.671875,-3.28125 0.671875,-4.71875 Z m 0,0"
           id="path35" />
      </g>
    </g>
  </g>
  <g
     fill="#260d33"
     fill-opacity="1"
     id="g41"
     transform="matrix(0.85772724,0,0,0.85772724,89.634821,-69.043775)">
    <g
       transform="translate(222.803,325.40529)"
       id="g40">
      <g
         id="g39">
        <path
           d="m 2.703125,-4.265625 c 0,1.011719 0.242187,1.792969 0.734375,2.34375 0.488281,0.554687 1.101562,0.828125 1.84375,0.828125 0.800781,0 1.421875,-0.328125 1.859375,-0.984375 0.445313,-0.65625 0.671875,-1.539063 0.671875,-2.65625 0,-1.226563 -0.214844,-2.125 -0.640625,-2.6875 -0.429687,-0.5625 -1.074219,-0.84375 -1.9375,-0.84375 -0.835937,0 -1.464844,0.335937 -1.890625,1 -0.429688,0.65625 -0.640625,1.65625 -0.640625,3 z M 1.1875,-9.40625 h 1.5 v 1.3125 h 0.03125 c 0.675781,-1.0625 1.613281,-1.59375 2.8125,-1.59375 1.207031,0 2.160156,0.445312 2.859375,1.328125 0.707031,0.875 1.0625,2 1.0625,3.375 0,1.53125 -0.359375,2.792969 -1.078125,3.78125 C 7.65625,-0.222656 6.632812,0.265625 5.3125,0.265625 4.21875,0.265625 3.378906,-0.15625 2.796875,-1 H 2.765625 V 3.734375 H 1.1875 Z m 0,0"
           id="path38" />
      </g>
    </g>
  </g>
  <g
     fill="#260d33"
     fill-opacity="1"
     id="g44"
     transform="matrix(0.85772724,0,0,0.85772724,89.634821,-69.043775)">
    <g
       transform="translate(232.48595,325.40529)"
       id="g43">
      <g
         id="g42">
        <path
           d="m 3.4375,0 h -1.875 v -1.90625 h 1.875 z m 0,0"
           id="path41" />
      </g>
    </g>
  </g>
  <g
     fill="#260d33"
     fill-opacity="1"
     id="g48"
     transform="translate(-37.421039,-79.22465)">
    <g
       transform="translate(29.374165,240.22465)"
       id="g47">
      <g
         id="g46">
        <path
           d="m 80.046875,-14.71875 c 4.4375,0 8.6875,-1.070312 12.75,-3.21875 4.070313,-2.144531 7.718755,-5.132812 10.937505,-8.96875 l 1.14062,0.6875 c -4.59375,8.28125 -10.804688,14.917969 -18.625,19.90625 -7.824219,4.980469 -16.414062,7.46875 -25.765625,7.46875 -9.65625,0 -18.433594,-2.601562 -26.328125,-7.8125 -7.898438,-5.21875 -14.226562,-12.234375 -18.984375,-21.046875 -4.75,-8.820313 -7.125,-18.601563 -7.125,-29.34375 0,-10.726563 2.375,-20.5 7.125,-29.3125 4.757813,-8.820313 11.085937,-15.835935 18.984375,-21.046875 7.894531,-5.21875 16.671875,-7.82813 26.328125,-7.82813 8.4375,0 15.988281,1.9961 22.65625,5.98438 6.675781,3.99219 12.273437,9.398438 16.796875,16.21875 4.51953,6.824219 7.625,14.605469 9.3125,23.34375 H 42.546875 c 0,10.117188 1.6875,19.355469 5.0625,27.71875 3.375,8.355469 7.894531,14.984375 13.5625,19.890625 5.675781,4.90625 11.96875,7.359375 18.875,7.359375 z m -19.5625,-99.125 c -3.21875,0 -5.867187,1.1875 -7.9375,3.5625 -2.0625,2.375 -3.789063,5.44531 -5.171875,9.20312 -1.375,3.750005 -2.371094,7.621099 -2.984375,11.60938 -0.617187,3.992188 -1.078125,7.671875 -1.390625,11.046875 -0.304688,3.367187 -0.453125,5.820313 -0.453125,7.359375 H 77.96875 c -1.375,-28.519531 -7.203125,-42.78125 -17.484375,-42.78125 z m 0,0"
           id="path45" />
      </g>
    </g>
  </g>
  <g
     fill="#260d33"
     fill-opacity="1"
     id="g51"
     transform="translate(-37.421039,-79.22465)">
    <g
       transform="translate(119.76142,240.22465)"
       id="g50">
      <g
         id="g49">
        <path
           d="m 96.828125,-24.84375 c 5.820315,1.386719 10.992185,3.996094 15.515625,7.828125 4.53125,3.835937 8.13281,8.511719 10.8125,14.03125 2.6875,5.519531 4.03125,11.5 4.03125,17.9375 0,7.507813 -1.76562,14.332031 -5.29687,20.46875 -3.52344,6.132813 -8.19922,11.039063 -14.03125,14.71875 -5.82422,3.675781 -12.261724,5.515625 -19.312505,5.515625 -5.824219,0 -11.34375,-1.1875 -16.5625,-3.5625 -5.210937,-2.375 -9.386719,-5.558594 -12.53125,-9.546875 -3.148437,-3.992187 -4.71875,-8.28125 -4.71875,-12.875 0,-4.90625 1.757813,-9.125 5.28125,-12.65625 3.53125,-3.523437 7.753906,-5.28125 12.671875,-5.28125 4.90625,0 9.082031,1.757813 12.53125,5.28125 3.445312,3.53125 5.171875,7.75 5.171875,12.65625 0,5.0625 -1.6875,9.273437 -5.0625,12.640625 -1.074219,1.082031 -1.996094,2.234375 -2.765625,3.453125 -0.761719,1.226563 -1.140625,2.457031 -1.140625,3.6875 0,3.21875 2.375,4.828125 7.125,4.828125 6.90625,0 13.156255,-1.765625 18.750005,-5.296875 5.59375,-3.523437 10.07812,-8.273437 13.45312,-14.25 3.375,-5.980469 5.0625,-12.574219 5.0625,-19.78125 0,-5.523437 -1.26562,-10.507813 -3.79687,-14.953125 -2.53125,-4.445312 -5.90625,-7.972656 -10.125,-10.578125 -4.21875,-2.601563 -8.9336,-3.90625 -14.14063,-3.90625 -5.367188,0 -10.234375,1.417969 -14.609375,4.25 -4.367187,2.835937 -8.464844,6.28125 -12.296875,10.34375 -3.835938,4.0625 -7.667969,8.160156 -11.5,12.296875 -3.835938,4.144531 -7.976562,7.632812 -12.421875,10.46875 -4.449219,2.84375 -9.511719,4.265625 -15.1875,4.265625 C 26.367188,27.140625 21.425781,25.757812 16.90625,23 12.382812,20.238281 8.816406,16.476562 6.203125,11.71875 c -2.605469,-4.75 -3.90625,-9.960938 -3.90625,-15.625 0,-7.050781 1.992187,-13.296875 5.984375,-18.734375 3.988281,-5.445313 9.046875,-9.09375 15.171875,-10.9375 -3.523437,-4.289063 -6.28125,-9.082031 -8.28125,-14.375 C 13.179688,-53.242188 12.1875,-58.800781 12.1875,-64.625 c 0,-9.351562 2.375,-17.863281 7.125,-25.53125 4.757812,-7.664062 11.085938,-13.75781 18.984375,-18.28125 7.894531,-4.53125 16.671875,-6.79688 26.328125,-6.79688 7.820312,0 15.179688,1.53907 22.078125,4.60938 -3.835937,-3.53125 -7.667969,-8.12891 -11.5,-13.79688 -3.835937,-5.67578 -5.75,-11.89062 -5.75,-18.64062 0,-4.90625 1.765625,-9.11719 5.296875,-12.64062 C 78.28125,-159.23437 82.5,-161 87.40625,-161 c 4.90625,0 9.082031,1.76563 12.53125,5.29688 3.44531,3.52343 5.17188,7.73437 5.17188,12.64062 0,3.83594 -1.11719,7.21094 -3.34375,10.125 -2.218755,2.91797 -5.01563,5.14062 -8.39063,6.67187 -5.210938,2.14844 -7.8125,5.0586 -7.8125,8.73438 0,1.99219 0.800781,3.90625 2.40625,5.75 1.613281,1.84375 3.570312,3.53125 5.875,5.0625 7.20703,4.60547 12.87891,10.546875 17.01563,17.828125 4.13281,7.28125 6.20312,15.371094 6.20312,24.265625 0,7.96875 -1.80469,15.445312 -5.40625,22.421875 -3.59375,6.980469 -8.53906,12.765625 -14.828125,17.359375 z m -32.203125,-89 c -11.804688,0 -17.703125,16.40625 -17.703125,49.21875 0,28.824219 4.597656,45 13.796875,48.53125 2.601562,-1.539062 5.171875,-2.921875 7.703125,-4.140625 2.53125,-1.226563 5.023437,-2.300781 7.484375,-3.21875 4.4375,-7.976563 6.65625,-21.703125 6.65625,-41.171875 0,-32.8125 -5.980469,-49.21875 -17.9375,-49.21875 z m -48.0625,94.296875 c 0,4.136719 1.492188,7.699219 4.484375,10.6875 2.988281,2.992187 6.550781,4.484375 10.6875,4.484375 4.300781,0 8.597656,-1.070312 12.890625,-3.21875 4.289062,-2.144531 8.734375,-4.441406 13.328125,-6.890625 -6.742187,-0.925781 -13.027344,-3 -18.859375,-6.21875 -5.824219,-3.21875 -10.804688,-7.203125 -14.9375,-11.953125 -5.0625,3.0625 -7.59375,7.433594 -7.59375,13.109375 z m 0,0"
           id="path48" />
      </g>
    </g>
  </g>
  <g
     fill="#260d33"
     fill-opacity="1"
     id="g54"
     transform="translate(-37.421039,-79.22465)">
    <g
       transform="translate(224.63833,240.22465)"
       id="g53">
      <g
         id="g52">
        <path
           d="m 60.484375,-115.23438 c 9.664063,0 18.445313,2.60938 26.34375,7.82813 7.894531,5.21094 14.218755,12.226562 18.968755,21.046875 4.75781,8.8125 7.14062,18.585937 7.14062,29.3125 0,10.742187 -2.38281,20.523437 -7.14062,29.34375 -4.75,8.8125 -11.074224,15.828125 -18.968755,21.046875 -7.898437,5.210938 -16.679687,7.8125 -26.34375,7.8125 -9.65625,0 -18.433594,-2.601562 -26.328125,-7.8125 -7.898438,-5.21875 -14.226562,-12.234375 -18.984375,-21.046875 -4.75,-8.820313 -7.125,-18.601563 -7.125,-29.34375 0,-10.726563 2.375,-20.5 7.125,-29.3125 4.757813,-8.820313 11.085937,-15.835935 18.984375,-21.046875 7.894531,-5.21875 16.671875,-7.82813 26.328125,-7.82813 z m 0,115.000005 c 11.8125,0 17.71875,-18.9375 17.71875,-56.8125 0,-37.863281 -5.90625,-56.796875 -17.71875,-56.796875 -11.960937,0 -17.9375,18.933594 -17.9375,56.796875 0,37.875 5.976563,56.8125 17.9375,56.8125 z m 0,0"
           id="path51" />
      </g>
    </g>
  </g>
</svg>
