<?xml version="1.0" encoding="UTF-8" standalone="no"?>
<svg
   width="500"
   zoomAndPan="magnify"
   viewBox="0 0 375 374.999991"
   height="500"
   preserveAspectRatio="xMidYMid meet"
   version="1.0"
   id="svg54"
   sodipodi:docname="ego.svg"
   inkscape:version="1.4 (e7c3feb1, 2024-10-09)"
   xmlns:inkscape="http://www.inkscape.org/namespaces/inkscape"
   xmlns:sodipodi="http://sodipodi.sourceforge.net/DTD/sodipodi-0.dtd"
   xmlns="http://www.w3.org/2000/svg"
   xmlns:svg="http://www.w3.org/2000/svg">
  <sodipodi:namedview
     id="namedview54"
     pagecolor="#ffffff"
     bordercolor="#000000"
     borderopacity="0.25"
     inkscape:showpageshadow="2"
     inkscape:pageopacity="0.0"
     inkscape:pagecheckerboard="0"
     inkscape:deskcolor="#d1d1d1"
     inkscape:export-bgcolor="#ffffffff"
     inkscape:zoom="0.69793274"
     inkscape:cx="249.30769"
     inkscape:cy="225.66645"
     inkscape:window-width="1440"
     inkscape:window-height="700"
     inkscape:window-x="0"
     inkscape:window-y="25"
     inkscape:window-maximized="0"
     inkscape:current-layer="svg54" />
  <defs
     id="defs3">
    <g
       id="g1" />
    <clipPath
       id="1e4f0a940f">
      <path
         d="M 3.976562 3.976562 L 371.023438 3.976562 L 371.023438 371.023438 L 3.976562 371.023438 Z M 3.976562 3.976562 "
         clip-rule="nonzero"
         id="path1" />
    </clipPath>
    <clipPath
       id="6e12dbc06f">
      <path
         d="M 187.5 3.976562 C 86.144531 3.976562 3.976562 86.144531 3.976562 187.5 C 3.976562 288.855469 86.144531 371.023438 187.5 371.023438 C 288.855469 371.023438 371.023438 288.855469 371.023438 187.5 C 371.023438 86.144531 288.855469 3.976562 187.5 3.976562 Z M 187.5 3.976562 "
         clip-rule="nonzero"
         id="path2" />
    </clipPath>
    <clipPath
       id="ee6a28d76e">
      <path
         d="M 277 134 L 293 134 L 293 148.359375 L 277 148.359375 Z M 277 134 "
         clip-rule="nonzero"
         id="path3" />
    </clipPath>
  </defs>
  <g
     clip-path="url(#1e4f0a940f)"
     id="g5">
    <g
       clip-path="url(#6e12dbc06f)"
       id="g4">
      <path
         fill="#b380cc"
         d="M 3.976562 3.976562 L 371.023438 3.976562 L 371.023438 371.023438 L 3.976562 371.023438 Z M 3.976562 3.976562 "
         fill-opacity="1"
         fill-rule="nonzero"
         id="path4" />
    </g>
  </g>
  <g
     fill="#260d33"
     fill-opacity="1"
     id="g8">
    <g
       transform="translate(137.498624, 325.405291)"
       id="g7">
      <g
         id="g6">
        <path
           d="M 3.09375 -8.109375 L 3.09375 -1.984375 C 3.09375 -1.742188 3.15625 -1.554688 3.28125 -1.421875 C 3.414062 -1.296875 3.65625 -1.234375 4 -1.234375 L 4.609375 -1.234375 L 4.609375 0 C 4.035156 0.0820312 3.640625 0.125 3.421875 0.125 C 2.753906 0.125 2.269531 -0.03125 1.96875 -0.34375 C 1.664062 -0.664062 1.515625 -1.179688 1.515625 -1.890625 L 1.515625 -8.109375 L 0.234375 -8.109375 L 0.234375 -9.40625 L 1.515625 -9.40625 L 1.515625 -12.046875 L 3.09375 -12.046875 L 3.09375 -9.40625 L 4.609375 -9.40625 L 4.609375 -8.109375 Z M 3.09375 -8.109375 "
           id="path5" />
      </g>
    </g>
  </g>
  <g
     fill="#260d33"
     fill-opacity="1"
     id="g11">
    <g
       transform="translate(141.996022, 325.405291)"
       id="g10">
      <g
         id="g9">
        <path
           d="M 8.859375 0 L 7.265625 0 L 7.265625 -6.15625 C 7.265625 -6.90625 7.117188 -7.441406 6.828125 -7.765625 C 6.535156 -8.097656 6.054688 -8.265625 5.390625 -8.265625 C 4.578125 -8.265625 3.9375 -8 3.46875 -7.46875 C 3 -6.945312 2.765625 -6.171875 2.765625 -5.140625 L 2.765625 0 L 1.1875 0 L 1.1875 -12.921875 L 2.765625 -12.921875 L 2.765625 -8.15625 L 2.796875 -8.15625 C 3.523438 -9.175781 4.445312 -9.6875 5.5625 -9.6875 C 6.59375 -9.6875 7.398438 -9.414062 7.984375 -8.875 C 8.566406 -8.332031 8.859375 -7.507812 8.859375 -6.40625 Z M 8.859375 0 "
           id="path8" />
      </g>
    </g>
  </g>
  <g
     fill="#260d33"
     fill-opacity="1"
     id="g14">
    <g
       transform="translate(151.441662, 325.405291)"
       id="g13">
      <g
         id="g12">
        <path
           d="M 7.640625 -5.453125 C 7.566406 -6.472656 7.300781 -7.195312 6.84375 -7.625 C 6.382812 -8.050781 5.773438 -8.265625 5.015625 -8.265625 C 4.253906 -8.265625 3.632812 -7.992188 3.15625 -7.453125 C 2.6875 -6.910156 2.4375 -6.242188 2.40625 -5.453125 Z M 9.15625 -2.953125 C 8.976562 -1.984375 8.5 -1.175781 7.71875 -0.53125 C 7.039062 0 6.140625 0.273438 5.015625 0.296875 C 3.703125 0.273438 2.65625 -0.15625 1.875 -1 C 1.101562 -1.851562 0.71875 -3.003906 0.71875 -4.453125 C 0.71875 -6.097656 1.113281 -7.378906 1.90625 -8.296875 C 2.707031 -9.222656 3.816406 -9.6875 5.234375 -9.6875 C 6.503906 -9.6875 7.5 -9.210938 8.21875 -8.265625 C 8.9375 -7.316406 9.296875 -5.957031 9.296875 -4.1875 L 2.40625 -4.1875 C 2.40625 -3.207031 2.632812 -2.445312 3.09375 -1.90625 C 3.550781 -1.363281 4.238281 -1.09375 5.15625 -1.09375 C 5.800781 -1.09375 6.351562 -1.285156 6.8125 -1.671875 C 7.269531 -2.066406 7.523438 -2.492188 7.578125 -2.953125 Z M 9.15625 -2.953125 "
           id="path11" />
      </g>
    </g>
  </g>
  <g
     fill="#260d33"
     fill-opacity="1"
     id="g17">
    <g
       transform="translate(160.931247, 325.405291)"
       id="g16">
      <g
         id="g15" />
    </g>
  </g>
  <g
     fill="#260d33"
     fill-opacity="1"
     id="g20">
    <g
       transform="translate(164.839779, 325.405291)"
       id="g19">
      <g
         id="g18">
        <path
           d="M 6.5 -6.734375 C 6.46875 -7.296875 6.265625 -7.695312 5.890625 -7.9375 C 5.515625 -8.1875 4.972656 -8.3125 4.265625 -8.3125 C 3.742188 -8.3125 3.300781 -8.195312 2.9375 -7.96875 C 2.570312 -7.738281 2.390625 -7.410156 2.390625 -6.984375 C 2.390625 -6.648438 2.5 -6.398438 2.71875 -6.234375 C 2.9375 -6.078125 3.40625 -5.90625 4.125 -5.71875 L 5.6875 -5.328125 C 6.632812 -5.085938 7.3125 -4.78125 7.71875 -4.40625 C 8.125 -4.03125 8.328125 -3.507812 8.328125 -2.84375 C 8.328125 -1.914062 7.988281 -1.164062 7.3125 -0.59375 C 6.632812 -0.0195312 5.734375 0.265625 4.609375 0.265625 C 3.285156 0.265625 2.285156 -0.00390625 1.609375 -0.546875 C 0.929688 -1.097656 0.585938 -1.925781 0.578125 -3.03125 L 2.109375 -3.03125 C 2.128906 -2.375 2.34375 -1.882812 2.75 -1.5625 C 3.15625 -1.25 3.769531 -1.09375 4.59375 -1.09375 C 5.25 -1.09375 5.769531 -1.222656 6.15625 -1.484375 C 6.550781 -1.753906 6.75 -2.125 6.75 -2.59375 C 6.75 -2.925781 6.625 -3.191406 6.375 -3.390625 C 6.125 -3.585938 5.625 -3.773438 4.875 -3.953125 L 3.046875 -4.390625 C 2.296875 -4.578125 1.742188 -4.859375 1.390625 -5.234375 C 1.035156 -5.609375 0.859375 -6.09375 0.859375 -6.6875 C 0.859375 -7.601562 1.1875 -8.332031 1.84375 -8.875 C 2.507812 -9.414062 3.378906 -9.6875 4.453125 -9.6875 C 5.585938 -9.6875 6.457031 -9.410156 7.0625 -8.859375 C 7.664062 -8.304688 7.988281 -7.597656 8.03125 -6.734375 Z M 6.5 -6.734375 "
           id="path17" />
      </g>
    </g>
  </g>
  <g
     fill="#260d33"
     fill-opacity="1"
     id="g23">
    <g
       transform="translate(173.353779, 325.405291)"
       id="g22">
      <g
         id="g21">
        <path
           d="M 7.640625 -5.453125 C 7.566406 -6.472656 7.300781 -7.195312 6.84375 -7.625 C 6.382812 -8.050781 5.773438 -8.265625 5.015625 -8.265625 C 4.253906 -8.265625 3.632812 -7.992188 3.15625 -7.453125 C 2.6875 -6.910156 2.4375 -6.242188 2.40625 -5.453125 Z M 9.15625 -2.953125 C 8.976562 -1.984375 8.5 -1.175781 7.71875 -0.53125 C 7.039062 0 6.140625 0.273438 5.015625 0.296875 C 3.703125 0.273438 2.65625 -0.15625 1.875 -1 C 1.101562 -1.851562 0.71875 -3.003906 0.71875 -4.453125 C 0.71875 -6.097656 1.113281 -7.378906 1.90625 -8.296875 C 2.707031 -9.222656 3.816406 -9.6875 5.234375 -9.6875 C 6.503906 -9.6875 7.5 -9.210938 8.21875 -8.265625 C 8.9375 -7.316406 9.296875 -5.957031 9.296875 -4.1875 L 2.40625 -4.1875 C 2.40625 -3.207031 2.632812 -2.445312 3.09375 -1.90625 C 3.550781 -1.363281 4.238281 -1.09375 5.15625 -1.09375 C 5.800781 -1.09375 6.351562 -1.285156 6.8125 -1.671875 C 7.269531 -2.066406 7.523438 -2.492188 7.578125 -2.953125 Z M 9.15625 -2.953125 "
           id="path20" />
      </g>
    </g>
  </g>
  <g
     fill="#260d33"
     fill-opacity="1"
     id="g26">
    <g
       transform="translate(182.843366, 325.405291)"
       id="g25">
      <g
         id="g24">
        <path
           d="M 8.828125 0 L 6.78125 0 L 4.46875 -3.546875 L 2.203125 0 L 0.203125 0 L 3.484375 -4.84375 L 0.359375 -9.40625 L 2.375 -9.40625 L 4.546875 -6.09375 L 6.75 -9.40625 L 8.671875 -9.40625 L 5.515625 -4.84375 Z M 8.828125 0 "
           id="path23" />
      </g>
    </g>
  </g>
  <g
     fill="#260d33"
     fill-opacity="1"
     id="g29">
    <g
       transform="translate(191.357366, 325.405291)"
       id="g28">
      <g
         id="g27" />
    </g>
  </g>
  <g
     fill="#260d33"
     fill-opacity="1"
     id="g32">
    <g
       transform="translate(195.265895, 325.405291)"
       id="g31">
      <g
         id="g30">
        <path
           d="M 6.5 -6.734375 C 6.46875 -7.296875 6.265625 -7.695312 5.890625 -7.9375 C 5.515625 -8.1875 4.972656 -8.3125 4.265625 -8.3125 C 3.742188 -8.3125 3.300781 -8.195312 2.9375 -7.96875 C 2.570312 -7.738281 2.390625 -7.410156 2.390625 -6.984375 C 2.390625 -6.648438 2.5 -6.398438 2.71875 -6.234375 C 2.9375 -6.078125 3.40625 -5.90625 4.125 -5.71875 L 5.6875 -5.328125 C 6.632812 -5.085938 7.3125 -4.78125 7.71875 -4.40625 C 8.125 -4.03125 8.328125 -3.507812 8.328125 -2.84375 C 8.328125 -1.914062 7.988281 -1.164062 7.3125 -0.59375 C 6.632812 -0.0195312 5.734375 0.265625 4.609375 0.265625 C 3.285156 0.265625 2.285156 -0.00390625 1.609375 -0.546875 C 0.929688 -1.097656 0.585938 -1.925781 0.578125 -3.03125 L 2.109375 -3.03125 C 2.128906 -2.375 2.34375 -1.882812 2.75 -1.5625 C 3.15625 -1.25 3.769531 -1.09375 4.59375 -1.09375 C 5.25 -1.09375 5.769531 -1.222656 6.15625 -1.484375 C 6.550781 -1.753906 6.75 -2.125 6.75 -2.59375 C 6.75 -2.925781 6.625 -3.191406 6.375 -3.390625 C 6.125 -3.585938 5.625 -3.773438 4.875 -3.953125 L 3.046875 -4.390625 C 2.296875 -4.578125 1.742188 -4.859375 1.390625 -5.234375 C 1.035156 -5.609375 0.859375 -6.09375 0.859375 -6.6875 C 0.859375 -7.601562 1.1875 -8.332031 1.84375 -8.875 C 2.507812 -9.414062 3.378906 -9.6875 4.453125 -9.6875 C 5.585938 -9.6875 6.457031 -9.410156 7.0625 -8.859375 C 7.664062 -8.304688 7.988281 -7.597656 8.03125 -6.734375 Z M 6.5 -6.734375 "
           id="path29" />
      </g>
    </g>
  </g>
  <g
     fill="#260d33"
     fill-opacity="1"
     id="g35">
    <g
       transform="translate(203.779892, 325.405291)"
       id="g34">
      <g
         id="g33">
        <path
           d="M 8.859375 0 L 7.265625 0 L 7.265625 -6.15625 C 7.265625 -6.90625 7.117188 -7.441406 6.828125 -7.765625 C 6.535156 -8.097656 6.054688 -8.265625 5.390625 -8.265625 C 4.578125 -8.265625 3.9375 -8 3.46875 -7.46875 C 3 -6.945312 2.765625 -6.171875 2.765625 -5.140625 L 2.765625 0 L 1.1875 0 L 1.1875 -12.921875 L 2.765625 -12.921875 L 2.765625 -8.15625 L 2.796875 -8.15625 C 3.523438 -9.175781 4.445312 -9.6875 5.5625 -9.6875 C 6.59375 -9.6875 7.398438 -9.414062 7.984375 -8.875 C 8.566406 -8.332031 8.859375 -7.507812 8.859375 -6.40625 Z M 8.859375 0 "
           id="path32" />
      </g>
    </g>
  </g>
  <g
     fill="#260d33"
     fill-opacity="1"
     id="g38">
    <g
       transform="translate(213.22553, 325.405291)"
       id="g37">
      <g
         id="g36">
        <path
           d="M 2.28125 -4.71875 C 2.28125 -3.664062 2.515625 -2.800781 2.984375 -2.125 C 3.460938 -1.445312 4.140625 -1.109375 5.015625 -1.109375 C 5.921875 -1.109375 6.609375 -1.460938 7.078125 -2.171875 C 7.546875 -2.890625 7.78125 -3.738281 7.78125 -4.71875 C 7.78125 -5.71875 7.546875 -6.5625 7.078125 -7.25 C 6.609375 -7.945312 5.921875 -8.296875 5.015625 -8.296875 C 4.179688 -8.296875 3.515625 -7.96875 3.015625 -7.3125 C 2.523438 -6.664062 2.28125 -5.800781 2.28125 -4.71875 Z M 0.671875 -4.71875 C 0.671875 -6.125 1.054688 -7.300781 1.828125 -8.25 C 2.609375 -9.207031 3.671875 -9.6875 5.015625 -9.6875 C 6.390625 -9.6875 7.460938 -9.203125 8.234375 -8.234375 C 9.003906 -7.265625 9.390625 -6.09375 9.390625 -4.71875 C 9.390625 -3.332031 9.003906 -2.15625 8.234375 -1.1875 C 7.472656 -0.21875 6.398438 0.265625 5.015625 0.265625 C 3.691406 0.265625 2.632812 -0.203125 1.84375 -1.140625 C 1.0625 -2.085938 0.671875 -3.28125 0.671875 -4.71875 Z M 0.671875 -4.71875 "
           id="path35" />
      </g>
    </g>
  </g>
  <g
     fill="#260d33"
     fill-opacity="1"
     id="g41">
    <g
       transform="translate(222.803004, 325.405291)"
       id="g40">
      <g
         id="g39">
        <path
           d="M 2.703125 -4.265625 C 2.703125 -3.253906 2.945312 -2.472656 3.4375 -1.921875 C 3.925781 -1.367188 4.539062 -1.09375 5.28125 -1.09375 C 6.082031 -1.09375 6.703125 -1.421875 7.140625 -2.078125 C 7.585938 -2.734375 7.8125 -3.617188 7.8125 -4.734375 C 7.8125 -5.960938 7.597656 -6.859375 7.171875 -7.421875 C 6.742188 -7.984375 6.097656 -8.265625 5.234375 -8.265625 C 4.398438 -8.265625 3.769531 -7.929688 3.34375 -7.265625 C 2.914062 -6.609375 2.703125 -5.609375 2.703125 -4.265625 Z M 1.1875 -9.40625 L 2.6875 -9.40625 L 2.6875 -8.09375 L 2.71875 -8.09375 C 3.394531 -9.15625 4.332031 -9.6875 5.53125 -9.6875 C 6.738281 -9.6875 7.691406 -9.242188 8.390625 -8.359375 C 9.097656 -7.484375 9.453125 -6.359375 9.453125 -4.984375 C 9.453125 -3.453125 9.09375 -2.191406 8.375 -1.203125 C 7.65625 -0.222656 6.632812 0.265625 5.3125 0.265625 C 4.21875 0.265625 3.378906 -0.15625 2.796875 -1 L 2.765625 -1 L 2.765625 3.734375 L 1.1875 3.734375 Z M 1.1875 -9.40625 "
           id="path38" />
      </g>
    </g>
  </g>
  <g
     fill="#260d33"
     fill-opacity="1"
     id="g44">
    <g
       transform="translate(232.485947, 325.405291)"
       id="g43">
      <g
         id="g42">
        <path
           d="M 3.4375 0 L 1.5625 0 L 1.5625 -1.90625 L 3.4375 -1.90625 Z M 3.4375 0 "
           id="path41" />
      </g>
    </g>
  </g>
  <g
     clip-path="url(#ee6a28d76e)"
     id="g45">
    <path
       fill="#260d33"
       d="M 292.691406 137.832031 C 291.839844 133.453125 286.5 133.378906 285.183594 137.472656 C 283.867188 133.378906 278.527344 133.453125 277.675781 137.832031 C 276.90625 141.808594 285.183594 148.078125 285.183594 148.078125 C 285.183594 148.078125 293.464844 141.808594 292.691406 137.832031 Z M 292.691406 137.832031 "
       fill-opacity="1"
       fill-rule="nonzero"
       id="path44" />
  </g>
  <g
     fill="#260d33"
     fill-opacity="1"
     id="g48">
    <g
       transform="translate(29.374165, 240.224647)"
       id="g47">
      <g
         id="g46">
        <path
           d="M 80.046875 -14.71875 C 84.484375 -14.71875 88.734375 -15.789062 92.796875 -17.9375 C 96.867188 -20.082031 100.515625 -23.070312 103.734375 -26.90625 L 104.875 -26.21875 C 100.28125 -17.9375 94.070312 -11.300781 86.25 -6.3125 C 78.425781 -1.332031 69.835938 1.15625 60.484375 1.15625 C 50.828125 1.15625 42.050781 -1.445312 34.15625 -6.65625 C 26.257812 -11.875 19.929688 -18.890625 15.171875 -27.703125 C 10.421875 -36.523438 8.046875 -46.304688 8.046875 -57.046875 C 8.046875 -67.773438 10.421875 -77.546875 15.171875 -86.359375 C 19.929688 -95.179688 26.257812 -102.195312 34.15625 -107.40625 C 42.050781 -112.625 50.828125 -115.234375 60.484375 -115.234375 C 68.921875 -115.234375 76.472656 -113.238281 83.140625 -109.25 C 89.816406 -105.257812 95.414062 -99.851562 99.9375 -93.03125 C 104.457031 -86.207031 107.5625 -78.425781 109.25 -69.6875 L 42.546875 -69.6875 C 42.546875 -59.570312 44.234375 -50.332031 47.609375 -41.96875 C 50.984375 -33.613281 55.503906 -26.984375 61.171875 -22.078125 C 66.847656 -17.171875 73.140625 -14.71875 80.046875 -14.71875 Z M 60.484375 -113.84375 C 57.265625 -113.84375 54.617188 -112.65625 52.546875 -110.28125 C 50.484375 -107.90625 48.757812 -104.835938 47.375 -101.078125 C 46 -97.328125 45.003906 -93.457031 44.390625 -89.46875 C 43.773438 -85.476562 43.3125 -81.796875 43 -78.421875 C 42.695312 -75.054688 42.546875 -72.601562 42.546875 -71.0625 L 77.96875 -71.0625 C 76.59375 -99.582031 70.765625 -113.84375 60.484375 -113.84375 Z M 60.484375 -113.84375 "
           id="path45" />
      </g>
    </g>
  </g>
  <g
     fill="#260d33"
     fill-opacity="1"
     id="g51">
    <g
       transform="translate(119.761416, 240.224647)"
       id="g50">
      <g
         id="g49">
        <path
           d="M 96.828125 -24.84375 C 102.648438 -23.457031 107.820312 -20.847656 112.34375 -17.015625 C 116.875 -13.179688 120.476562 -8.503906 123.15625 -2.984375 C 125.84375 2.535156 127.1875 8.515625 127.1875 14.953125 C 127.1875 22.460938 125.421875 29.285156 121.890625 35.421875 C 118.367188 41.554688 113.691406 46.460938 107.859375 50.140625 C 102.035156 53.816406 95.597656 55.65625 88.546875 55.65625 C 82.722656 55.65625 77.203125 54.46875 71.984375 52.09375 C 66.773438 49.71875 62.597656 46.535156 59.453125 42.546875 C 56.304688 38.554688 54.734375 34.265625 54.734375 29.671875 C 54.734375 24.765625 56.492188 20.546875 60.015625 17.015625 C 63.546875 13.492188 67.769531 11.734375 72.6875 11.734375 C 77.59375 11.734375 81.769531 13.492188 85.21875 17.015625 C 88.664062 20.546875 90.390625 24.765625 90.390625 29.671875 C 90.390625 34.734375 88.703125 38.945312 85.328125 42.3125 C 84.253906 43.394531 83.332031 44.546875 82.5625 45.765625 C 81.800781 46.992188 81.421875 48.222656 81.421875 49.453125 C 81.421875 52.671875 83.796875 54.28125 88.546875 54.28125 C 95.453125 54.28125 101.703125 52.515625 107.296875 48.984375 C 112.890625 45.460938 117.375 40.710938 120.75 34.734375 C 124.125 28.753906 125.8125 22.160156 125.8125 14.953125 C 125.8125 9.429688 124.546875 4.445312 122.015625 0 C 119.484375 -4.445312 116.109375 -7.972656 111.890625 -10.578125 C 107.671875 -13.179688 102.957031 -14.484375 97.75 -14.484375 C 92.382812 -14.484375 87.515625 -13.066406 83.140625 -10.234375 C 78.773438 -7.398438 74.675781 -3.953125 70.84375 0.109375 C 67.007812 4.171875 63.175781 8.269531 59.34375 12.40625 C 55.507812 16.550781 51.367188 20.039062 46.921875 22.875 C 42.472656 25.71875 37.410156 27.140625 31.734375 27.140625 C 26.367188 27.140625 21.425781 25.757812 16.90625 23 C 12.382812 20.238281 8.816406 16.476562 6.203125 11.71875 C 3.597656 6.96875 2.296875 1.757812 2.296875 -3.90625 C 2.296875 -10.957031 4.289062 -17.203125 8.28125 -22.640625 C 12.269531 -28.085938 17.328125 -31.734375 23.453125 -33.578125 C 19.929688 -37.867188 17.171875 -42.660156 15.171875 -47.953125 C 13.179688 -53.242188 12.1875 -58.800781 12.1875 -64.625 C 12.1875 -73.976562 14.5625 -82.488281 19.3125 -90.15625 C 24.070312 -97.820312 30.398438 -103.914062 38.296875 -108.4375 C 46.191406 -112.96875 54.96875 -115.234375 64.625 -115.234375 C 72.445312 -115.234375 79.804688 -113.695312 86.703125 -110.625 C 82.867188 -114.15625 79.035156 -118.753906 75.203125 -124.421875 C 71.367188 -130.097656 69.453125 -136.3125 69.453125 -143.0625 C 69.453125 -147.96875 71.21875 -152.179688 74.75 -155.703125 C 78.28125 -159.234375 82.5 -161 87.40625 -161 C 92.3125 -161 96.488281 -159.234375 99.9375 -155.703125 C 103.382812 -152.179688 105.109375 -147.96875 105.109375 -143.0625 C 105.109375 -139.226562 103.992188 -135.851562 101.765625 -132.9375 C 99.546875 -130.019531 96.75 -127.796875 93.375 -126.265625 C 88.164062 -124.117188 85.5625 -121.207031 85.5625 -117.53125 C 85.5625 -115.539062 86.363281 -113.625 87.96875 -111.78125 C 89.582031 -109.9375 91.539062 -108.25 93.84375 -106.71875 C 101.050781 -102.113281 106.722656 -96.171875 110.859375 -88.890625 C 114.992188 -81.609375 117.0625 -73.519531 117.0625 -64.625 C 117.0625 -56.65625 115.257812 -49.179688 111.65625 -42.203125 C 108.0625 -35.222656 103.117188 -29.4375 96.828125 -24.84375 Z M 64.625 -113.84375 C 52.820312 -113.84375 46.921875 -97.4375 46.921875 -64.625 C 46.921875 -35.800781 51.519531 -19.625 60.71875 -16.09375 C 63.320312 -17.632812 65.890625 -19.015625 68.421875 -20.234375 C 70.953125 -21.460938 73.445312 -22.535156 75.90625 -23.453125 C 80.34375 -31.429688 82.5625 -45.15625 82.5625 -64.625 C 82.5625 -97.4375 76.582031 -113.84375 64.625 -113.84375 Z M 16.5625 -19.546875 C 16.5625 -15.410156 18.054688 -11.847656 21.046875 -8.859375 C 24.035156 -5.867188 27.597656 -4.375 31.734375 -4.375 C 36.035156 -4.375 40.332031 -5.445312 44.625 -7.59375 C 48.914062 -9.738281 53.359375 -12.035156 57.953125 -14.484375 C 51.210938 -15.410156 44.925781 -17.484375 39.09375 -20.703125 C 33.269531 -23.921875 28.289062 -27.90625 24.15625 -32.65625 C 19.09375 -29.59375 16.5625 -25.222656 16.5625 -19.546875 Z M 16.5625 -19.546875 "
           id="path48" />
      </g>
    </g>
  </g>
  <g
     fill="#260d33"
     fill-opacity="1"
     id="g54">
    <g
       transform="translate(224.638328, 240.224647)"
       id="g53">
      <g
         id="g52">
        <path
           d="M 60.484375 -115.234375 C 70.148438 -115.234375 78.929688 -112.625 86.828125 -107.40625 C 94.722656 -102.195312 101.046875 -95.179688 105.796875 -86.359375 C 110.554688 -77.546875 112.9375 -67.773438 112.9375 -57.046875 C 112.9375 -46.304688 110.554688 -36.523438 105.796875 -27.703125 C 101.046875 -18.890625 94.722656 -11.875 86.828125 -6.65625 C 78.929688 -1.445312 70.148438 1.15625 60.484375 1.15625 C 50.828125 1.15625 42.050781 -1.445312 34.15625 -6.65625 C 26.257812 -11.875 19.929688 -18.890625 15.171875 -27.703125 C 10.421875 -36.523438 8.046875 -46.304688 8.046875 -57.046875 C 8.046875 -67.773438 10.421875 -77.546875 15.171875 -86.359375 C 19.929688 -95.179688 26.257812 -102.195312 34.15625 -107.40625 C 42.050781 -112.625 50.828125 -115.234375 60.484375 -115.234375 Z M 60.484375 -0.234375 C 72.296875 -0.234375 78.203125 -19.171875 78.203125 -57.046875 C 78.203125 -94.910156 72.296875 -113.84375 60.484375 -113.84375 C 48.523438 -113.84375 42.546875 -94.910156 42.546875 -57.046875 C 42.546875 -19.171875 48.523438 -0.234375 60.484375 -0.234375 Z M 60.484375 -0.234375 "
           id="path51" />
      </g>
    </g>
  </g>
</svg>
